<svg width="16" height="16" viewBox="0 0 16 16" fill="none" xmlns="http://www.w3.org/2000/svg">
<circle cx="8" cy="8" r="8" fill="#FFDD40"/>
<path d="M6.20135 9.05735C6.03634 9.05735 5.89447 8.99899 5.77575 8.88228C5.65702 8.76355 5.59766 8.62068 5.59766 8.45366C5.59766 8.28865 5.65702 8.14779 5.77575 8.03107C5.89447 7.91235 6.03634 7.85298 6.20135 7.85298C6.36636 7.85298 6.50823 7.91235 6.62695 8.03107C6.74568 8.14779 6.80504 8.28865 6.80504 8.45366C6.80504 8.56433 6.77687 8.66596 6.72053 8.75852C6.66619 8.84908 6.59375 8.92152 6.5032 8.97585C6.41264 9.03018 6.31203 9.05735 6.20135 9.05735ZM8.60858 9.05735C8.44357 9.05735 8.3017 8.99899 8.18297 8.88228C8.06425 8.76355 8.00488 8.62068 8.00488 8.45366C8.00488 8.28865 8.06425 8.14779 8.18297 8.03107C8.3017 7.91235 8.44357 7.85298 8.60858 7.85298C8.77359 7.85298 8.91545 7.91235 9.03418 8.03107C9.15291 8.14779 9.21227 8.28865 9.21227 8.45366C9.21227 8.56433 9.1841 8.66596 9.12775 8.75852C9.07342 8.84908 9.00098 8.92152 8.91042 8.97585C8.81987 9.03018 8.71925 9.05735 8.60858 9.05735ZM11.0158 9.05735C10.8508 9.05735 10.7089 8.99899 10.5902 8.88228C10.4715 8.76355 10.4121 8.62068 10.4121 8.45366C10.4121 8.28865 10.4715 8.14779 10.5902 8.03107C10.7089 7.91235 10.8508 7.85298 11.0158 7.85298C11.1808 7.85298 11.3227 7.91235 11.4414 8.03107C11.5601 8.14779 11.6195 8.28865 11.6195 8.45366C11.6195 8.56433 11.5913 8.66596 11.535 8.75852C11.4806 8.84908 11.4082 8.92152 11.3176 8.97585C11.2271 9.03018 11.1265 9.05735 11.0158 9.05735Z" fill="black"/>
</svg>
